<svg width="64" height="64" viewBox="0 0 64 64" fill="none" xmlns="http://www.w3.org/2000/svg">
<g filter="url(#filter0_d_9_2789)">
<rect x="8" y="2" width="48" height="48" rx="24" fill="black" shape-rendering="crispEdges"/>
<g clip-path="url(#clip0_9_2789)">
<path d="M39 25H33V19C33 18.7348 32.8946 18.4804 32.7071 18.2929C32.5196 18.1054 32.2652 18 32 18C31.7348 18 31.4804 18.1054 31.2929 18.2929C31.1054 18.4804 31 18.7348 31 19V25H25C24.7348 25 24.4804 25.1054 24.2929 25.2929C24.1054 25.4804 24 25.7348 24 26C24 26.2652 24.1054 26.5196 24.2929 26.7071C24.4804 26.8946 24.7348 27 25 27H31V33C31 33.2652 31.1054 33.5196 31.2929 33.7071C31.4804 33.8946 31.7348 34 32 34C32.2652 34 32.5196 33.8946 32.7071 33.7071C32.8946 33.5196 33 33.2652 33 33V27H39C39.2652 27 39.5196 26.8946 39.7071 26.7071C39.8946 26.5196 40 26.2652 40 26C40 25.7348 39.8946 25.4804 39.7071 25.2929C39.5196 25.1054 39.2652 25 39 25Z" fill="white"/>
</g>
</g>
<defs>
<filter id="filter0_d_9_2789" x="0" y="0" width="64" height="64" filterUnits="userSpaceOnUse" color-interpolation-filters="sRGB">
<feFlood flood-opacity="0" result="BackgroundImageFix"/>
<feColorMatrix in="SourceAlpha" type="matrix" values="0 0 0 0 0 0 0 0 0 0 0 0 0 0 0 0 0 0 127 0" result="hardAlpha"/>
<feOffset dy="6"/>
<feGaussianBlur stdDeviation="4"/>
<feComposite in2="hardAlpha" operator="out"/>
<feColorMatrix type="matrix" values="0 0 0 0 0 0 0 0 0 0 0 0 0 0 0 0 0 0 0.1 0"/>
<feBlend mode="normal" in2="BackgroundImageFix" result="effect1_dropShadow_9_2789"/>
<feBlend mode="normal" in="SourceGraphic" in2="effect1_dropShadow_9_2789" result="shape"/>
</filter>
<clipPath id="clip0_9_2789">
<rect width="24" height="24" fill="white" transform="translate(20 14)"/>
</clipPath>
</defs>
</svg>
