<svg width="38" height="38" viewBox="0 0 38 38" fill="none" xmlns="http://www.w3.org/2000/svg">
<g clip-path="url(#clip0_13_4114)">
<path d="M30.0833 17.4167H20.5833V7.91668C20.5833 7.49675 20.4165 7.09402 20.1196 6.79709C19.8226 6.50016 19.4199 6.33334 19 6.33334C18.5801 6.33334 18.1773 6.50016 17.8804 6.79709C17.5835 7.09402 17.4166 7.49675 17.4166 7.91668V17.4167H7.91665C7.49672 17.4167 7.09399 17.5835 6.79706 17.8804C6.50013 18.1774 6.33331 18.5801 6.33331 19C6.33331 19.4199 6.50013 19.8227 6.79706 20.1196C7.09399 20.4165 7.49672 20.5833 7.91665 20.5833H17.4166V30.0833C17.4166 30.5033 17.5835 30.906 17.8804 31.2029C18.1773 31.4999 18.5801 31.6667 19 31.6667C19.4199 31.6667 19.8226 31.4999 20.1196 31.2029C20.4165 30.906 20.5833 30.5033 20.5833 30.0833V20.5833H30.0833C30.5032 20.5833 30.906 20.4165 31.2029 20.1196C31.4998 19.8227 31.6666 19.4199 31.6666 19C31.6666 18.5801 31.4998 18.1774 31.2029 17.8804C30.906 17.5835 30.5032 17.4167 30.0833 17.4167Z" fill="white"/>
</g>
<defs>
<clipPath id="clip0_13_4114">
<rect width="38" height="38" fill="white"/>
</clipPath>
</defs>
</svg>
