<svg width="38" height="38" viewBox="0 0 38 38" fill="none" xmlns="http://www.w3.org/2000/svg">
<path d="M25.3334 12.6667H27.1696C28.8166 12.6667 30.1886 13.9291 30.3254 15.5704L31.3809 28.237C31.5348 30.0833 30.0778 31.6667 28.2252 31.6667H9.77492C7.92229 31.6667 6.46534 30.0833 6.61919 28.237L7.67475 15.5704C7.81152 13.9291 9.18353 12.6667 10.8305 12.6667H12.6667M25.3334 12.6667H12.6667M25.3334 12.6667L25.3334 11.0833C25.3334 9.40363 24.6661 7.79272 23.4784 6.60499C22.2907 5.41726 20.6798 4.75 19.0001 4.75C17.3203 4.75 15.7094 5.41726 14.5217 6.60499C13.334 7.79272 12.6667 9.40363 12.6667 11.0833L12.6667 12.6667M25.3334 12.6667L25.3334 19M12.6667 12.6667L12.6667 19" stroke="white" stroke-width="2.375" stroke-linecap="round" stroke-linejoin="round"/>
</svg>
